<svg width="625" height="400" viewBox="0 0 625 400" fill="none" xmlns="http://www.w3.org/2000/svg">
<g clip-path="url(#clip0_4159_482)">
<mask id="mask0_4159_482" style="mask-type:luminance" maskUnits="userSpaceOnUse" x="0" y="0" width="625" height="400">
<path d="M625 0H0V399.298H625V0Z" fill="white"/>
</mask>
<g mask="url(#mask0_4159_482)">
<mask id="mask1_4159_482" style="mask-type:luminance" maskUnits="userSpaceOnUse" x="0" y="0" width="625" height="400">
<path d="M625 0H0V399.298H625V0Z" fill="white"/>
</mask>
<g mask="url(#mask1_4159_482)">
<path d="M306.592 269.93C303.422 276.408 300.174 282.097 295.989 287.218C288.728 296.103 281.261 299.153 273.897 296.18C265.399 292.743 260.622 283.643 261.739 272.851C262.194 268.443 262.658 264.035 263.389 259.67C264.093 255.477 265.15 251.344 266.087 247.056C259.728 249.643 255.483 253.329 253.653 260.486C250.594 272.421 245.104 283.463 237.413 293.25C232.378 299.651 226.363 304.859 218.699 307.857C200.216 315.092 186.347 305.503 186.743 285.654C186.914 277.027 189.011 268.701 191.709 260.538C196.435 246.24 202.51 232.586 211.335 220.307C215.304 214.791 219.962 209.996 227.162 208.682C229.242 208.295 231.553 208.14 232.997 209.232C236.322 211.749 239.621 211.38 243.359 210.83C248.24 210.117 251.823 212.772 254.487 216.681C257.46 221.046 258.302 226.116 259.084 231.512C263.5 229.149 266.714 225.712 269.257 221.802C273.236 215.676 278.52 210.624 282.731 204.669C288.161 197.013 298.541 198.053 302.94 206.121C304.212 208.458 304.41 210.417 302.829 212.797C292.294 228.599 288.78 246.876 284.638 264.929C283.839 268.409 283.427 271.94 283.865 276.142C286.649 273.719 288.221 270.935 289.699 268.117C298.438 251.404 304.822 233.669 311.945 216.26C313.561 212.308 315.022 208.286 316.594 204.308C318.218 200.218 321.303 198.491 325.659 198.56C330.712 198.637 335.481 199.445 338.445 204.024C339.82 206.138 338.651 208.484 337.646 210.555C332.37 221.424 328.727 232.792 327.163 244.779C326.501 249.832 326.183 254.918 326.656 260.607C329.26 258.888 330.462 256.817 331.648 254.789C336.993 245.63 340.662 235.731 344.314 225.824C345.01 223.933 344.245 222.498 343.729 220.909C340.035 209.378 338.918 197.683 342.157 185.885C344.039 179.046 347.974 173.435 354.178 169.791C358.913 167.016 364.06 165.426 369.095 168.941C374.07 172.412 375.316 177.585 374.551 183.368C373.279 192.871 370.934 202.134 368.364 211.354C367.677 213.829 367.196 216.389 366.199 218.735C364.953 221.648 366.457 222.318 368.768 222.43C372.695 222.61 377.67 218.907 378.658 214.971C389.829 170.556 402.907 126.717 417.952 83.453C418.184 82.7828 418.451 82.104 418.519 81.408C419.525 72.1452 425.342 65.1336 434.287 62.4355C441.238 60.3475 449.685 63.7674 455.382 70.7789C459.137 75.4104 458.793 80.6089 457.719 85.8761C453.792 105.141 446.11 123.125 438.506 141.118C427.103 168.09 413.699 194.074 398.705 219.208C393.618 227.723 394.065 236.943 394.211 246.18C394.254 248.852 394.443 251.619 395.569 254.171C396.78 256.903 398.662 257.72 401.437 256.405C404.118 255.142 406.06 253.037 407.847 250.811C413.321 243.98 417.875 236.504 421.647 228.677C423.452 224.93 423.555 220.385 424.569 216.234C429.174 197.563 436.109 179.819 446.076 163.33C448.98 158.518 452.469 154.213 457.367 151.197C461.525 148.636 465.891 147.94 470.47 149.702C473.332 150.802 476.33 150.879 479.286 151.326C485.37 152.245 489.09 155.837 489.005 161.912C488.704 183.686 480.713 202.306 464.791 217.197C459.79 221.871 453.672 224.896 446.368 222.438C444.873 221.931 444.667 222.636 444.495 223.787C443.533 230.472 442.931 237.166 444.521 243.834C445.827 249.325 448.765 250.751 454.05 248.5C459.841 246.034 464.344 241.815 468.546 237.304C482.749 222.086 492.244 204.188 498.353 184.407C499.616 180.317 500.708 176.184 501.893 172.069C502.933 168.477 504.54 165.005 500.037 162.187C498.027 160.933 498.233 158.131 498.766 155.811C500.63 147.614 510.804 138.643 519.251 137.75C526.047 137.028 529.639 141.29 528.453 148.551C528.256 149.754 526.64 151.816 528.754 152.082C530.842 152.349 533.385 154.445 535.439 151.627C536.702 149.9 538.077 148.233 539.589 146.729C544.246 142.098 551.653 141.823 556.731 145.999C560.495 149.1 560.933 153.732 556.697 158.492C549.686 166.38 546.025 175.961 541.961 185.353C537.699 195.208 534.666 205.468 533.274 216.149C532.999 218.271 532.99 220.428 532.939 222.576C532.887 224.715 532.543 227.482 534.588 228.419C536.968 229.501 538.756 227.078 540.225 225.472C547.34 217.678 552.736 208.785 555.932 198.731C560.366 184.786 566.2 171.519 574.08 159.197C577.491 153.869 581.392 148.894 587.244 145.981C591.858 143.687 596.55 142.965 600.932 146.437C602.307 147.519 603.535 147.27 604.927 146.987C612.91 145.337 618.014 147.94 621.356 155.536C624.965 163.759 624.604 172.352 622.963 180.842C619.982 196.231 614.671 210.804 606.027 223.985C599.514 233.927 591.265 241.823 579.321 244.882C566.793 248.087 558.201 243.834 553.045 231.796C551.335 233.806 549.728 235.791 548.019 237.682C545.106 240.887 541.755 243.516 537.785 245.329C522.567 252.272 510.417 244.59 510.598 227.886C510.718 216.226 513.476 204.97 516.879 193.885C518.426 188.841 520.196 183.875 521.837 178.865C522.189 177.8 523.564 176.468 521.399 175.841C519.732 175.351 518.606 175.669 517.901 177.705C514.757 186.874 512.041 196.325 507.144 204.677C497.253 221.545 486.908 238.206 472.507 251.765C464.284 259.507 454.643 264.499 443.103 265.229C434.631 265.762 427.911 263.116 423.855 254.566C422.627 256.207 421.596 257.625 420.522 259.008C415.177 265.874 409.128 271.829 400.492 274.441C393.094 276.683 386.667 274.991 381.159 269.698C375.995 264.74 372.996 258.751 372.867 251.481C372.833 249.333 372.893 247.185 372.893 245.045C372.893 242.914 373.615 240.251 372.601 238.824C371.604 237.424 368.966 239.263 366.998 239.074C366.715 239.048 366.388 239.151 366.148 239.048C360.184 236.427 358.474 239.993 356.67 244.822C353.62 252.976 349.547 260.701 344.7 267.971C341.985 272.043 338.78 275.661 334.845 278.634C327.601 284.099 320.014 282.784 312.53 279.588C308.809 277.998 308.027 273.925 306.592 269.964M574.827 217.403C574.827 218.116 574.767 218.838 574.836 219.543C575.068 221.871 574.26 224.818 577.036 225.97C579.768 227.113 581.908 225.197 583.884 223.495C584.425 223.031 584.967 222.541 585.388 221.974C596.713 206.585 603.87 189.675 604.154 170.281C604.18 168.425 604.18 166.329 602.229 165.418C600.115 164.43 598.414 165.847 596.842 167.102C596.18 167.635 595.518 168.219 594.994 168.881C583.601 183.11 576.469 199.109 574.827 217.403ZM209.565 281.521C210.209 284.975 208.387 289.057 212.168 290.397C215.923 291.729 218.681 288.619 220.675 285.878C231.656 270.815 238.668 254.248 239.037 235.31C239.08 233.222 239.381 230.73 236.949 229.742C234.638 228.805 232.928 230.558 231.269 231.899C230.72 232.346 230.195 232.853 229.757 233.411C218.501 247.726 211.249 263.7 209.565 281.521ZM407.839 174.638C409.789 170.135 411.8 165.658 413.69 161.13C423.323 138.119 432.646 114.996 438.686 90.7224C439.296 88.2821 440.37 85.6527 438.506 82.0438C426.923 113.08 416.595 143.567 407.83 174.638M467.6 178.513C467.6 177.155 467.6 176.159 467.6 175.162C467.6 174.131 467.54 173.031 466.397 172.696C465.53 172.438 464.713 173.014 464.163 173.684C457.263 182.199 451.842 191.436 450.982 202.658C450.836 204.626 450.836 207.264 453.302 208.166C456.086 209.18 457.521 206.851 458.698 205.004C463.914 196.824 466.586 187.759 467.6 178.513Z" fill="black"/>
<path d="M154.899 211.402C161.798 212.227 167.547 213.748 172.754 216.987C185.961 225.219 190.67 239.165 185.334 254.236C182.618 261.901 178.279 268.637 172.84 274.549C150.448 298.875 124.085 317.108 92.0264 326.423C71.8424 332.283 54.451 328.279 40.7028 311.807C32.4367 301.899 32.3766 293.891 38.3399 281.638C40.3162 277.582 43.3751 277.488 46.3224 281.294C49.6391 285.573 52.3888 290.308 57.046 294.183C67.8383 247.285 81.7926 201.624 97.4054 155.782C84.2759 160.044 72.04 164.916 59.9159 170.106C58.0771 170.896 56.1953 171.584 54.4166 172.478C52.0365 173.672 49.2009 174.187 49.4501 178.174C49.5962 180.572 47.1902 182.368 45.2827 183.889C39.5256 188.468 32.9523 191.605 26.1212 194.174C24.8495 194.655 23.2169 194.801 21.9194 194.449C15.4062 192.679 9.20235 190.049 3.99524 185.684C-0.541657 181.886 -0.129213 177.607 5.06072 173.552C15.5523 165.363 26.6969 158.128 38.357 151.709C72.4439 132.96 108.619 119.917 147.217 115.01C173.424 111.685 190.068 118.482 203.395 141.175C208.723 150.24 208.662 159.262 203.395 168.362C196.951 179.481 187.636 187.884 177.746 195.755C170.717 201.349 163.165 206.203 154.907 211.402M145.739 232.239C129.653 233.141 114.281 237.249 99.1669 242.602C97.1304 243.324 97.0016 245.068 96.4516 246.615C89.9556 265.037 84.5423 283.769 79.8335 302.724C78.8368 306.737 80.4092 307.141 83.4596 307.149C90.222 307.167 96.3571 304.907 102.209 301.839C123.553 290.66 141.107 274.876 156.454 256.522C159.47 252.913 161.91 248.849 162.795 244.062C163.672 239.294 162.005 235.96 157.528 234.104C153.773 232.548 149.803 232.119 145.739 232.248M106.789 214.745C124.696 207.123 141.142 198.436 155.947 186.844C163.637 180.83 170.795 174.256 176.371 166.162C180.393 160.328 183.495 154.115 183.237 146.734C183.082 142.206 181.063 139.955 176.492 139.534C174.507 139.353 172.479 139.302 170.494 139.456C156.866 140.487 143.823 143.959 131.08 148.822C128.588 149.776 127.239 151.082 126.328 153.634C119.231 173.5 112.855 193.59 106.78 214.745" fill="black"/>
<path d="M306.592 269.93C303.422 276.408 300.174 282.097 295.989 287.218C288.728 296.103 281.261 299.153 273.897 296.18C265.399 292.743 260.622 283.643 261.739 272.851C262.194 268.443 262.658 264.035 263.389 259.67C264.093 255.477 265.15 251.344 266.087 247.056C259.728 249.643 255.483 253.329 253.653 260.486C250.594 272.421 245.104 283.463 237.413 293.25C232.378 299.651 226.363 304.859 218.699 307.857C200.216 315.092 186.347 305.503 186.743 285.654C186.914 277.027 189.011 268.701 191.709 260.538C196.435 246.24 202.51 232.586 211.335 220.307C215.304 214.791 219.962 209.996 227.162 208.682C229.242 208.295 231.553 208.14 232.997 209.232C236.322 211.749 239.621 211.38 243.359 210.83C248.24 210.117 251.823 212.772 254.487 216.681C257.46 221.046 258.302 226.116 259.084 231.512C263.5 229.149 266.714 225.712 269.257 221.802C273.236 215.676 278.52 210.624 282.731 204.669C288.161 197.013 298.541 198.053 302.94 206.121C304.212 208.458 304.41 210.417 302.829 212.797C292.294 228.599 288.78 246.876 284.638 264.929C283.839 268.409 283.427 271.94 283.865 276.142C286.649 273.719 288.221 270.935 289.699 268.117C298.438 251.404 304.822 233.669 311.945 216.26C313.561 212.308 315.022 208.286 316.594 204.308C318.218 200.218 321.303 198.491 325.659 198.56C330.712 198.637 335.481 199.445 338.445 204.024C339.82 206.138 338.651 208.484 337.646 210.555C332.37 221.424 328.727 232.792 327.163 244.779C326.501 249.832 326.183 254.918 326.656 260.607C329.26 258.888 330.462 256.817 331.648 254.789C336.993 245.63 340.662 235.731 344.314 225.824C345.01 223.933 344.245 222.498 343.729 220.909C340.035 209.378 338.918 197.683 342.157 185.885C344.039 179.046 347.974 173.435 354.178 169.791C358.913 167.016 364.06 165.426 369.095 168.941C374.07 172.412 375.316 177.585 374.551 183.368C373.279 192.871 370.934 202.134 368.364 211.354C367.677 213.829 367.196 216.389 366.199 218.735C364.953 221.648 366.457 222.318 368.768 222.43C372.695 222.61 377.67 218.907 378.658 214.971C389.829 170.556 402.907 126.717 417.952 83.453C418.184 82.7828 418.451 82.104 418.519 81.408C419.525 72.1452 425.342 65.1336 434.287 62.4355C441.238 60.3475 449.685 63.7674 455.382 70.7789C459.137 75.4104 458.793 80.6089 457.719 85.8761C453.792 105.141 446.11 123.125 438.506 141.118C427.103 168.09 413.699 194.074 398.705 219.208C393.618 227.723 394.065 236.943 394.211 246.18C394.254 248.852 394.443 251.619 395.569 254.171C396.78 256.903 398.662 257.72 401.437 256.405C404.118 255.142 406.06 253.037 407.847 250.811C413.321 243.98 417.875 236.504 421.647 228.677C423.452 224.93 423.555 220.385 424.569 216.234C429.174 197.563 436.109 179.819 446.076 163.33C448.98 158.518 452.469 154.213 457.367 151.197C461.525 148.636 465.891 147.94 470.47 149.702C473.332 150.802 476.33 150.879 479.286 151.326C485.37 152.245 489.09 155.837 489.005 161.912C488.704 183.686 480.713 202.306 464.791 217.197C459.79 221.871 453.672 224.896 446.368 222.438C444.873 221.931 444.667 222.636 444.495 223.787C443.533 230.472 442.931 237.166 444.521 243.834C445.827 249.325 448.765 250.751 454.05 248.5C459.841 246.034 464.344 241.815 468.546 237.304C482.749 222.086 492.244 204.188 498.353 184.407C499.616 180.317 500.708 176.184 501.893 172.069C502.933 168.477 504.54 165.005 500.037 162.187C498.027 160.933 498.233 158.131 498.766 155.811C500.63 147.614 510.804 138.643 519.251 137.75C526.047 137.028 529.639 141.29 528.453 148.551C528.256 149.754 526.64 151.816 528.754 152.082C530.842 152.349 533.385 154.445 535.439 151.627C536.702 149.9 538.077 148.233 539.589 146.729C544.246 142.098 551.653 141.823 556.731 145.999C560.495 149.1 560.933 153.732 556.697 158.492C549.686 166.38 546.025 175.961 541.961 185.353C537.699 195.208 534.666 205.468 533.274 216.149C532.999 218.271 532.99 220.428 532.939 222.576C532.887 224.715 532.543 227.482 534.588 228.419C536.968 229.501 538.756 227.078 540.225 225.472C547.34 217.678 552.736 208.785 555.932 198.731C560.366 184.786 566.2 171.519 574.08 159.197C577.491 153.869 581.392 148.894 587.244 145.981C591.858 143.687 596.55 142.965 600.932 146.437C602.307 147.519 603.535 147.27 604.927 146.987C612.91 145.337 618.014 147.94 621.356 155.536C624.965 163.759 624.604 172.352 622.963 180.842C619.982 196.231 614.671 210.804 606.027 223.985C599.514 233.927 591.265 241.823 579.321 244.882C566.793 248.087 558.201 243.834 553.045 231.796C551.335 233.806 549.728 235.791 548.019 237.682C545.106 240.887 541.755 243.516 537.785 245.329C522.567 252.272 510.417 244.59 510.598 227.886C510.718 216.226 513.476 204.97 516.879 193.885C518.426 188.841 520.196 183.875 521.837 178.865C522.189 177.8 523.564 176.468 521.399 175.841C519.732 175.351 518.606 175.669 517.901 177.705C514.757 186.874 512.041 196.325 507.144 204.677C497.253 221.545 486.908 238.206 472.507 251.765C464.284 259.507 454.643 264.499 443.103 265.229C434.631 265.762 427.911 263.116 423.855 254.566C422.627 256.207 421.596 257.625 420.522 259.008C415.177 265.874 409.128 271.829 400.492 274.441C393.094 276.683 386.667 274.991 381.159 269.698C375.995 264.74 372.996 258.751 372.867 251.481C372.833 249.333 372.893 247.185 372.893 245.045C372.893 242.914 373.615 240.251 372.601 238.824C371.604 237.424 368.966 239.263 366.998 239.074C366.715 239.048 366.388 239.151 366.148 239.048C360.184 236.427 358.474 239.993 356.67 244.822C353.62 252.976 349.547 260.701 344.7 267.971C341.985 272.043 338.78 275.661 334.845 278.634C327.601 284.099 320.014 282.784 312.53 279.588C308.809 277.998 308.027 273.925 306.592 269.964M574.827 217.403C574.827 218.116 574.767 218.838 574.836 219.543C575.068 221.871 574.26 224.818 577.036 225.97C579.768 227.113 581.908 225.197 583.884 223.495C584.425 223.031 584.967 222.541 585.388 221.974C596.713 206.585 603.87 189.675 604.154 170.281C604.18 168.425 604.18 166.329 602.229 165.418C600.115 164.43 598.414 165.847 596.842 167.102C596.18 167.635 595.518 168.219 594.994 168.881C583.601 183.11 576.469 199.109 574.827 217.403ZM209.565 281.521C210.209 284.975 208.387 289.057 212.168 290.397C215.923 291.729 218.681 288.619 220.675 285.878C231.656 270.815 238.668 254.248 239.037 235.31C239.08 233.222 239.381 230.73 236.949 229.742C234.638 228.805 232.928 230.558 231.269 231.899C230.72 232.346 230.195 232.853 229.757 233.411C218.501 247.726 211.249 263.7 209.565 281.521ZM407.839 174.638C409.789 170.135 411.8 165.658 413.69 161.13C423.323 138.119 432.646 114.996 438.686 90.7224C439.296 88.2821 440.37 85.6527 438.506 82.0438C426.923 113.08 416.595 143.567 407.83 174.638M467.6 178.513C467.6 177.155 467.6 176.159 467.6 175.162C467.6 174.131 467.54 173.031 466.397 172.696C465.53 172.438 464.713 173.014 464.163 173.684C457.263 182.199 451.842 191.436 450.982 202.658C450.836 204.626 450.836 207.264 453.302 208.166C456.086 209.18 457.521 206.851 458.698 205.004C463.914 196.824 466.586 187.759 467.6 178.513Z" fill="black"/>
<path d="M495.217 245.947C474.526 327.559 400.458 388.129 312.495 388.129C248.248 388.129 191.426 355.812 157.382 306.593C154.632 308.776 151.857 310.873 149.047 312.866C155.783 322.541 163.414 331.701 171.929 340.216C209.479 377.766 259.393 398.44 312.495 398.44C365.598 398.44 415.512 377.757 453.062 340.216C478.35 314.928 495.973 284.012 504.798 250.303C502.469 247.416 500.682 244.091 499.496 240.379C498.113 242.252 496.686 244.117 495.217 245.947Z" fill="#00B7E2"/>
<path d="M470.333 88.4504C469.912 90.5298 469.44 92.5921 468.941 94.6371C478.565 108.927 486.281 124.608 491.729 141.304C493.997 138.193 496.764 135.323 499.858 132.883C493.147 114.005 483.557 96.2181 471.322 80.0469C471.313 83.6644 470.703 86.6718 470.333 88.4504Z" fill="#00B7E2"/>
<path d="M151.582 101.616C184.724 47.4227 244.459 11.1705 312.504 11.1705C356.051 11.1705 396.187 26.0185 428.135 50.9113C428.925 50.6105 429.733 50.3356 430.558 50.095C433.11 49.3302 435.782 48.9436 438.506 48.9436C439.821 48.9436 441.144 49.0381 442.459 49.2185C406.361 17.9329 360.743 0.859375 312.504 0.859375C259.402 0.859375 209.487 21.5418 171.938 59.0828C158.645 72.3756 147.483 87.215 138.59 103.197C140.927 102.836 143.256 102.51 145.593 102.218C147.664 101.951 149.649 101.762 151.582 101.616Z" fill="#00B7E2"/>
<path d="M154.899 211.402C161.798 212.227 167.547 213.748 172.754 216.987C185.961 225.219 190.67 239.165 185.334 254.236C182.618 261.901 178.279 268.637 172.84 274.549C150.448 298.875 124.085 317.108 92.0264 326.423C71.8424 332.283 54.451 328.279 40.7028 311.807C32.4367 301.899 32.3766 293.891 38.3399 281.638C40.3162 277.582 43.3751 277.488 46.3224 281.294C49.6391 285.573 52.3888 290.308 57.046 294.183C67.8383 247.285 81.7926 201.624 97.4054 155.782C84.2759 160.044 72.04 164.916 59.9159 170.106C58.0771 170.896 56.1953 171.584 54.4166 172.478C52.0365 173.672 49.2009 174.187 49.4501 178.174C49.5962 180.572 47.1902 182.368 45.2827 183.889C39.5256 188.468 32.9523 191.605 26.1212 194.174C24.8495 194.655 23.2169 194.801 21.9194 194.449C15.4062 192.679 9.20235 190.049 3.99524 185.684C-0.541657 181.886 -0.129213 177.607 5.06072 173.552C15.5523 165.363 26.6969 158.128 38.357 151.709C72.4439 132.96 108.619 119.917 147.217 115.01C173.424 111.685 190.068 118.482 203.395 141.175C208.723 150.24 208.662 159.262 203.395 168.362C196.951 179.481 187.636 187.884 177.746 195.755C170.717 201.349 163.165 206.203 154.907 211.402M145.739 232.239C129.653 233.141 114.281 237.249 99.1669 242.602C97.1304 243.324 97.0016 245.068 96.4516 246.615C89.9556 265.037 84.5423 283.769 79.8335 302.724C78.8368 306.737 80.4092 307.141 83.4596 307.149C90.222 307.167 96.3571 304.907 102.209 301.839C123.553 290.66 141.107 274.876 156.454 256.522C159.47 252.913 161.91 248.849 162.795 244.062C163.672 239.294 162.005 235.96 157.528 234.104C153.773 232.548 149.803 232.119 145.739 232.248M106.789 214.745C124.696 207.123 141.142 198.436 155.947 186.844C163.637 180.83 170.795 174.256 176.371 166.162C180.393 160.328 183.495 154.115 183.237 146.734C183.082 142.206 181.063 139.955 176.492 139.534C174.507 139.353 172.479 139.302 170.494 139.456C156.866 140.487 143.823 143.959 131.08 148.822C128.588 149.776 127.239 151.082 126.328 153.634C119.231 173.5 112.855 193.59 106.78 214.745" fill="black"/>
</g>
</g>
</g>
<defs>
<clipPath id="clip0_4159_482">
<rect width="625" height="399.298" fill="white"/>
</clipPath>
</defs>
</svg>
